<svg preserveAspectRatio="none" width="100%" height="100%" overflow="visible" style="display: block;" viewBox="0 0 18 14" fill="none" xmlns="http://www.w3.org/2000/svg">
<path id="Union" d="M12.8912 3.40821C13.7696 3.0846 14.7301 3.05887 15.6246 3.33496C17.0364 3.77098 17.9996 5.07614 17.9996 6.55371V12.666C17.9995 13.0387 17.6975 13.3407 17.3248 13.3408C16.9522 13.3406 16.6501 13.0386 16.65 12.666V11.9922C15.8862 12.5651 15.0145 12.9831 14.0875 13.2148C13.023 13.4808 11.8991 13.0755 11.2525 12.1865C9.76348 10.1389 11.2266 7.2669 13.7584 7.26661H16.65V6.55371C16.65 5.66827 16.0722 4.88629 15.2262 4.625C14.6148 4.43636 13.9584 4.45368 13.358 4.67481L13.1393 4.75489C12.5694 4.96496 12.1253 5.42287 11.9332 5.99903L11.8902 6.12989C11.7722 6.48328 11.3893 6.67449 11.0357 6.55664C10.6827 6.43859 10.4917 6.05638 10.609 5.70313L10.6529 5.57227C10.9747 4.60707 11.7178 3.84014 12.6725 3.48829L12.8912 3.40821ZM3.68027 0.942387C4.07519 -0.304028 5.83407 -0.317529 6.24766 0.922855L10.0904 12.4522C10.2082 12.8057 10.0171 13.1886 9.66367 13.3066C9.31025 13.4243 8.92822 13.2331 8.81016 12.8799L7.76426 9.74121H2.30918L1.31895 12.8701C1.20633 13.2252 0.826493 13.4218 0.47129 13.3096C0.116068 13.1969 -0.0806767 12.8172 0.0318365 12.4619L3.68027 0.942387ZM13.7584 8.61621C12.33 8.61651 11.5042 10.2372 12.3443 11.3926C12.666 11.8348 13.2279 12.0382 13.7604 11.9053C14.571 11.7025 15.3309 11.3263 15.983 10.8047L16.65 10.2705V8.61621H13.7584ZM2.73691 8.39161H7.31406L4.96641 1.34961L2.73691 8.39161Z" fill="var(--fill-0, #454447)"/>
</svg>
