<svg preserveAspectRatio="none" width="100%" height="100%" overflow="visible" style="display: block;" viewBox="0 0 17 17" fill="none" xmlns="http://www.w3.org/2000/svg">
<path id="Union" d="M5.80664 0C6.46661 8.81938e-05 7.09307 0.290105 7.52051 0.792969L8.74707 2.23535C8.88951 2.40292 9.09844 2.49991 9.31836 2.5H13.25C15.3211 2.5 17 4.17893 17 6.25V13.25C17 15.3211 15.3211 17 13.25 17H3.75C1.67893 17 0 15.3211 0 13.25V3.75C0 1.67893 1.67893 0 3.75 0H5.80664ZM3.75 7.5C2.50736 7.5 1.5 8.50736 1.5 9.75V13.25C1.5 14.4926 2.50736 15.5 3.75 15.5H13.25C14.4926 15.5 15.5 14.4926 15.5 13.25V9.75C15.5 8.50736 14.4926 7.5 13.25 7.5H3.75ZM3.75 1.5C2.50736 1.5 1.5 2.50736 1.5 3.75V6.74902C2.12669 6.27841 2.90595 6 3.75 6H13.25C14.0941 6 14.8733 6.27841 15.5 6.74902V6.25C15.5 5.00736 14.4926 4 13.25 4H9.31836C8.65839 3.99991 8.03193 3.70989 7.60449 3.20703L6.37793 1.76465C6.23549 1.59708 6.02656 1.50009 5.80664 1.5H3.75Z" fill="var(--fill-0, #1D1C1D)"/>
</svg>
