<svg preserveAspectRatio="none" width="100%" height="100%" overflow="visible" style="display: block;" viewBox="0 0 15 15" fill="none" xmlns="http://www.w3.org/2000/svg">
<path id="Union" d="M9.91113 0.623047C9.98161 0.215196 10.3694 -0.0592838 10.7773 0.0107422C11.1853 0.0810751 11.4595 0.469048 11.3896 0.876953L10.9199 3.60059H13.8008C14.2148 3.6008 14.5508 3.9365 14.5508 4.35059C14.5506 4.76454 14.2147 5.10038 13.8008 5.10059H10.6611L9.83398 9.90039H12.9004C13.3144 9.9006 13.6504 10.2363 13.6504 10.6504C13.6503 11.0644 13.3144 11.4002 12.9004 11.4004H9.5752L9.13965 13.9277C9.06917 14.3356 8.68137 14.6091 8.27344 14.5391C7.86537 14.4687 7.59094 14.0809 7.66113 13.6729L8.05273 11.4004H5.2998L4.86426 13.9277C4.79378 14.3356 4.40598 14.6091 3.99805 14.5391C3.59019 14.4685 3.31557 14.0808 3.38574 13.6729L3.77734 11.4004H0.75C0.335996 11.4002 4.89188e-05 11.0644 0 10.6504C0 10.2363 0.335966 9.9006 0.75 9.90039H4.03613L4.86328 5.10059H1.65039C1.23627 5.10059 0.900546 4.76467 0.900391 4.35059C0.900391 3.93637 1.23618 3.60059 1.65039 3.60059H5.12207L5.63574 0.623047C5.70617 0.215286 6.09417 -0.0590528 6.50195 0.0107422C6.90991 0.0810788 7.18419 0.469024 7.11426 0.876953L6.64453 3.60059H9.39746L9.91113 0.623047ZM5.55859 9.90039H8.31152L9.13867 5.10059H6.38574L5.55859 9.90039Z" fill="var(--fill-0, #39063A)"/>
</svg>
