<svg preserveAspectRatio="none" width="100%" height="100%" overflow="visible" style="display: block;" viewBox="0 0 18 14" fill="none" xmlns="http://www.w3.org/2000/svg">
<path id="Union" d="M12.8922 3.40822C13.7706 3.0846 14.731 3.05878 15.6256 3.33497C17.0372 3.77104 18.0006 5.0762 18.0006 6.55372V12.666C18.0005 13.0387 17.6984 13.3407 17.3257 13.3408C16.953 13.3408 16.651 13.0387 16.6509 12.666V11.9922C15.887 12.5653 15.0156 12.983 14.0884 13.2149C13.0239 13.481 11.9002 13.0754 11.2535 12.1865C9.76434 10.1388 11.2273 7.26661 13.7593 7.26661H16.6509V6.55372C16.6509 5.66834 16.073 4.88635 15.2271 4.62501C14.6157 4.43627 13.9594 4.45367 13.359 4.67482L13.1402 4.7549C12.5702 4.96491 12.1263 5.42275 11.9341 5.99904L11.8912 6.1299C11.7732 6.48332 11.3902 6.6744 11.0367 6.55665C10.6834 6.4387 10.4925 6.05653 10.6099 5.70314L10.6539 5.57228C10.9757 4.60694 11.7186 3.84009 12.6734 3.48829L12.8922 3.40822ZM3.68024 0.942396C4.07509 -0.304123 5.83402 -0.317555 6.24762 0.922865L10.0904 12.4522C10.2083 12.8058 10.0173 13.1888 9.66364 13.3067C9.3102 13.4243 8.92814 13.2332 8.81012 12.8799L7.76422 9.74122H2.30915L1.31891 12.8701C1.20624 13.2253 0.826541 13.4221 0.471255 13.3096C0.116086 13.1969 -0.0806678 12.8172 0.031802 12.4619L3.68024 0.942396ZM13.7593 8.61622C12.3307 8.61622 11.505 10.2371 12.3453 11.3926C12.6671 11.8348 13.2288 12.0384 13.7613 11.9053C14.5721 11.7025 15.3318 11.3264 15.984 10.8047L16.6509 10.2705V8.61622H13.7593ZM2.73688 8.39161H7.31403L4.96637 1.34962L2.73688 8.39161Z" fill="var(--fill-0, #454447)"/>
</svg>
