<svg preserveAspectRatio="none" width="100%" height="100%" overflow="visible" style="display: block;" viewBox="0 0 20 15" fill="none" xmlns="http://www.w3.org/2000/svg">
<path id="Union" d="M14.3232 3.78613C15.2994 3.4265 16.3674 3.39821 17.3613 3.70508C18.9299 4.1895 19.9998 5.63965 20 7.28125V14.0732C20 14.4874 19.6642 14.8232 19.25 14.8232C18.8359 14.8231 18.5 14.4873 18.5 14.0732V13.3252C17.6514 13.9616 16.6831 14.4251 15.6533 14.6826C14.4704 14.9783 13.2214 14.5279 12.5029 13.54C10.8488 11.2649 12.4741 8.07342 15.2871 8.07324H18.5V7.28125C18.4998 6.29761 17.8588 5.42897 16.9189 5.13867C16.2394 4.92886 15.5091 4.94848 14.8418 5.19434L14.5996 5.2832C13.9663 5.51659 13.4732 6.02574 13.2598 6.66602L13.2119 6.81055C13.0809 7.20343 12.6556 7.41613 12.2627 7.28516C11.8699 7.15409 11.6572 6.72878 11.7881 6.33594L11.8369 6.19141C12.1944 5.11885 13.0202 4.26689 14.0811 3.87598L14.3232 3.78613ZM4.08789 1.04688C4.52658 -0.338137 6.48177 -0.35273 6.94141 1.02539L11.2119 13.8359C11.3429 14.2289 11.1303 14.6542 10.7373 14.7852C10.3444 14.9161 9.91906 14.7035 9.78809 14.3105L8.62598 10.8232H2.56543L1.46484 14.2998C1.33973 14.6946 0.918266 14.9131 0.523438 14.7881C0.128811 14.6629 -0.0898478 14.2414 0.0351562 13.8467L4.08789 1.04688ZM15.2871 9.57324C13.6999 9.57342 12.7826 11.3745 13.7158 12.6582C14.0733 13.1497 14.6973 13.3754 15.2891 13.2275C16.1902 13.0023 17.0349 12.5848 17.7598 12.0049L18.5 11.4121V9.57324H15.2871ZM3.04102 9.32324H8.12598L5.51855 1.5L3.04102 9.32324Z" fill="var(--fill-0, #1D1C1D)"/>
</svg>
