<svg preserveAspectRatio="none" width="100%" height="100%" overflow="visible" style="display: block;" viewBox="0 0 12 14" fill="none" xmlns="http://www.w3.org/2000/svg">
<path id="Union" d="M10.1899 0C10.4635 0 10.7164 0.148927 10.8481 0.388672C10.9798 0.628572 10.9696 0.92143 10.8227 1.15234L8.75633 4.40039H10.1362C11.6823 4.40039 12.4363 6.30371 11.2612 7.3457C9.23437 9.14195 6.27595 11.7417 4.47313 13.3242C3.47488 14.1999 2.01462 13.1131 2.51415 11.9141L3.68602 9.09961H2.25243C0.643909 9.09941 -0.445286 7.46037 0.178208 5.97754L2.49852 0.458984L2.5493 0.359375C2.68389 0.138465 2.92598 0.000171101 3.18993 0H10.1899ZM1.56102 6.55957C1.35347 7.05371 1.71647 7.59941 2.25243 7.59961H4.81102C5.06158 7.59961 5.2959 7.72526 5.43504 7.93359C5.57412 8.14221 5.5998 8.40722 5.5034 8.63867L4.33055 11.4512C6.12062 9.87896 8.53476 7.75799 10.2661 6.22363C10.3903 6.11357 10.3268 5.90039 10.1362 5.90039H7.39012C7.1165 5.90028 6.86457 5.75061 6.7329 5.51074C6.60135 5.27084 6.61041 4.97791 6.75731 4.74707L8.82372 1.5H3.68797L1.56102 6.55957Z" fill="var(--fill-0, #454447)"/>
</svg>
