<svg preserveAspectRatio="none" width="100%" height="100%" overflow="visible" style="display: block;" viewBox="0 0 14 14" fill="none" xmlns="http://www.w3.org/2000/svg">
<path id="Union" d="M6.7998 0C10.5553 0 13.5995 3.04436 13.5996 6.7998C13.5996 7.9101 13.3333 8.95981 12.8604 9.88672L13.583 12.8584C13.6324 13.0618 13.5718 13.2758 13.4238 13.4238C13.2758 13.5718 13.0618 13.6324 12.8584 13.583L9.88672 12.8604C8.95981 13.3333 7.9101 13.5996 6.7998 13.5996C3.04436 13.5995 0 10.5553 0 6.7998C0.000105605 3.04442 3.04442 0.000105608 6.7998 0ZM4.2002 7.60059C3.86882 7.60059 3.60059 7.86882 3.60059 8.2002C3.6007 8.53147 3.86889 8.7998 4.2002 8.7998H7.7998C8.13104 8.79973 8.40028 8.53142 8.40039 8.2002C8.40039 7.86887 8.13111 7.60066 7.7998 7.60059H4.2002ZM4.2002 4.80078C3.86882 4.80078 3.60059 5.06902 3.60059 5.40039C3.6008 5.73158 3.86896 6 4.2002 6H9.40039C9.73147 5.99982 9.99978 5.73146 10 5.40039C10 5.06913 9.7316 4.80097 9.40039 4.80078H4.2002Z" fill="var(--fill-0, #1D1C1D)"/>
</svg>
