<svg preserveAspectRatio="none" width="100%" height="100%" overflow="visible" style="display: block;" viewBox="0 0 15 17" fill="none" xmlns="http://www.w3.org/2000/svg">
<path id="Union" d="M12.8404 0.00683594C13.0737 0.0386847 13.2818 0.178836 13.397 0.388672C13.5286 0.628512 13.5184 0.921494 13.3717 1.15234L10.6051 5.5H13.2867C14.8297 5.50037 15.5897 7.40196 14.4136 8.44629C11.742 10.818 7.39568 14.6363 5.07282 16.6748C4.06959 17.5552 2.61677 16.4567 3.11384 15.2637L4.89021 11H2.25251C0.64393 10.9999 -0.445123 9.36079 0.178293 7.87793L3.29743 0.458984L3.34919 0.359375C3.48386 0.13873 3.72506 0.000131569 3.98884 0H12.7388L12.8404 0.00683594ZM1.56111 8.45898C1.35327 8.95326 1.71634 9.49993 2.25251 9.5H6.01521C6.26581 9.50013 6.5002 9.62547 6.63923 9.83398C6.77814 10.0425 6.80379 10.3068 6.70759 10.5381L4.93025 14.8027C7.35389 12.6748 11.0471 9.42851 13.4176 7.32422C13.5396 7.21556 13.4797 7.00034 13.2867 7H9.23884C8.96541 6.99986 8.71334 6.85093 8.58161 6.61133C8.44997 6.37152 8.45932 6.07853 8.60603 5.84766L11.3726 1.5H4.48689L1.56111 8.45898Z" fill="var(--fill-0, #1D1C1D)"/>
</svg>
