<svg preserveAspectRatio="none" width="100%" height="100%" overflow="visible" style="display: block;" viewBox="0 0 18 18" fill="none" xmlns="http://www.w3.org/2000/svg">
<path id="Union" d="M13.75 0.5C15.8211 0.5 17.5 2.17893 17.5 4.25V9.98535C17.5 10.7147 17.21 11.414 16.6943 11.9297L11.9297 16.6943C11.414 17.21 10.7147 17.5 9.98535 17.5H4.25C2.17893 17.5 0.5 15.8211 0.5 13.75V8.25C0.5 7.83579 0.835786 7.5 1.25 7.5C1.66421 7.5 2 7.83579 2 8.25V13.75C2 14.9926 3.00736 16 4.25 16H9.75V11.25C9.75 10.4216 10.4216 9.75 11.25 9.75H16V4.25C16 3.00736 14.9926 2 13.75 2H8.25C7.83579 2 7.5 1.66421 7.5 1.25C7.5 0.835786 7.83579 0.5 8.25 0.5H13.75ZM11.25 15.2529L15.2529 11.25H11.25V15.2529ZM3 0C3.41421 0 3.75 0.335786 3.75 0.75V2.25H5.25C5.66421 2.25 6 2.58579 6 3C6 3.41421 5.66421 3.75 5.25 3.75H3.75V5.25C3.75 5.66421 3.41421 6 3 6C2.58579 6 2.25 5.66421 2.25 5.25V3.75H0.75C0.335787 3.75 1.28047e-07 3.41421 0 3C1.47561e-07 2.58579 0.335787 2.25 0.75 2.25H2.25V0.75C2.25 0.335786 2.58579 0 3 0Z" fill="var(--fill-0, #1D1C1D)"/>
</svg>
