<svg preserveAspectRatio="none" width="100%" height="100%" overflow="visible" style="display: block;" viewBox="0 0 16 16" fill="none" xmlns="http://www.w3.org/2000/svg">
<path id="Union" d="M0.320312 0.100586C0.519191 -0.0221916 0.76747 -0.0331556 0.976562 0.0712891L14.9268 7.0459C15.1553 7.16015 15.2996 7.39397 15.2998 7.64941C15.2998 7.90509 15.1554 8.13957 14.9268 8.25391L0.976562 15.2285C0.767484 15.333 0.519201 15.322 0.320312 15.1992C0.121504 15.0762 6.75199e-05 14.8588 0 14.625V9.18359C5.82935e-05 8.57162 0.272043 8.02124 0.703125 7.64941C0.272333 7.27756 0 6.72799 0 6.11621V0.674805C6.79927e-05 0.440961 0.121399 0.223547 0.320312 0.100586ZM1.34961 6.11621C1.34961 6.48073 1.6396 6.77952 2.00391 6.79102L7.89551 6.97559C8.25972 6.98697 8.54949 7.2851 8.5498 7.64941C8.5498 8.014 8.25991 8.31283 7.89551 8.32422L2.00391 8.50879C1.63966 8.52027 1.34971 8.81916 1.34961 9.18359V13.5322L13.1152 7.64941L1.34961 1.7666V6.11621Z" fill="var(--fill-0, white)"/>
</svg>
