<svg preserveAspectRatio="none" width="100%" height="100%" overflow="visible" style="display: block;" viewBox="0 0 14 12" fill="none" xmlns="http://www.w3.org/2000/svg">
<g id="Group 14">
<path id="Union" d="M5.73242 0.207031C6.03206 -0.0786072 6.50708 -0.0670743 6.79297 0.232422C7.07861 0.532065 7.06707 1.00708 6.76758 1.29297L2.62207 5.25H13.25C13.6642 5.25 14 5.58579 14 6C14 6.41421 13.6642 6.75 13.25 6.75H2.62207L6.76758 10.707C7.06708 10.9929 7.07861 11.4679 6.79297 11.7676C6.50708 12.0671 6.03207 12.0786 5.73242 11.793L0.232422 6.54297C0.0841608 6.40145 1.24551e-06 6.20496 0 6C1.77689e-05 5.7951 0.0842293 5.59951 0.232422 5.45801L5.73242 0.207031Z" fill="var(--fill-0, white)"/>
</g>
</svg>
