<svg preserveAspectRatio="none" width="100%" height="100%" overflow="visible" style="display: block;" viewBox="0 0 14 15" fill="none" xmlns="http://www.w3.org/2000/svg">
<path id="Union" d="M0.1134 10.0688C0.332923 9.71765 0.795399 9.61112 1.1466 9.8305L6.21692 12.9994C6.42834 13.1314 6.69471 13.1312 6.90442 13.0004C8.12407 12.2381 10.5608 10.7147 11.9708 9.83343C12.3221 9.6139 12.7855 9.72046 13.005 10.0717C13.2243 10.4229 13.1169 10.8854 12.7657 11.1049C11.3557 11.9862 8.91906 13.5096 7.69934 14.2719C7.00139 14.7079 6.11813 14.7059 5.42199 14.2709L0.351682 11.102C0.000759174 10.8825 -0.105745 10.4199 0.1134 10.0688ZM0.1134 7.268C0.332889 6.91711 0.795494 6.81066 1.1466 7.02972L6.21692 10.1987C6.42845 10.3307 6.69465 10.3306 6.90442 10.1996C8.12417 9.4373 10.5608 7.91391 11.9708 7.03265C12.3219 6.81323 12.7853 6.9201 13.005 7.27093C13.2244 7.62216 13.1169 8.08465 12.7657 8.30414C11.3558 9.18536 8.91916 10.7087 7.69934 11.4711C7.00134 11.9073 6.11825 11.9052 5.42199 11.4702L0.351682 8.30121C0.000904114 8.08152 -0.106008 7.61906 0.1134 7.268ZM5.42199 0.326598C6.11902 -0.109038 7.00321 -0.108842 7.70031 0.326598L12.2189 3.14984C13.2153 3.77259 13.2153 5.22435 12.2189 5.84711L7.70031 8.67035C7.0032 9.10583 6.11904 9.106 5.42199 8.67035L0.903439 5.84711C-0.0925444 5.22429 -0.0925942 3.77261 0.903439 3.14984L5.42199 0.326598ZM6.90539 1.59808C6.69478 1.46679 6.42745 1.4666 6.21692 1.59808L1.69836 4.4223C1.64251 4.45759 1.64256 4.53932 1.69836 4.57464L6.21692 7.39886C6.42747 7.53036 6.69477 7.5302 6.90539 7.39886L11.4239 4.57464C11.4803 4.5394 11.4803 4.45755 11.4239 4.4223L6.90539 1.59808Z" fill="var(--fill-0, #454447)"/>
</svg>
