<svg preserveAspectRatio="none" width="100%" height="100%" overflow="visible" style="display: block;" viewBox="0 0 15 15" fill="none" xmlns="http://www.w3.org/2000/svg">
<path id="Union" d="M6.39941 1.60059C6.61994 1.60059 6.83858 1.61194 7.05371 1.63379C7.38338 1.66732 7.62435 1.96135 7.59082 2.29102C7.55716 2.62055 7.2622 2.86067 6.93262 2.82715C6.75767 2.80937 6.57942 2.7998 6.39941 2.7998C3.52787 2.80013 1.19932 5.12841 1.19922 8C1.19933 10.8716 3.52787 13.1999 6.39941 13.2002C9.27123 13.2002 11.5995 10.8718 11.5996 8C11.5996 7.87929 11.596 7.75911 11.5879 7.64062C11.5839 7.5822 11.5782 7.52366 11.5723 7.46582C11.5389 7.13651 11.7792 6.84251 12.1084 6.80859C12.4381 6.775 12.733 7.01506 12.7666 7.34473C12.7738 7.41591 12.7793 7.48775 12.7842 7.55957C12.7941 7.70514 12.7998 7.8521 12.7998 8C12.7997 11.5345 9.93397 14.4004 6.39941 14.4004C2.86513 14.4001 0.000107048 11.5343 0 8C0.000105836 4.46567 2.86513 1.60091 6.39941 1.60059ZM8.32031 8.7998C8.68106 8.7998 8.96626 9.12037 8.84766 9.46094C8.44293 10.6199 7.42163 11.2001 6.40039 11.2002C5.37903 11.2002 4.35692 10.62 3.95215 9.46094C3.83362 9.12046 4.11885 8.79992 4.47949 8.7998H8.32031ZM4.59961 5.59961C5.15176 5.59961 5.5994 6.0475 5.59961 6.59961C5.59961 7.15189 5.15189 7.59961 4.59961 7.59961C4.04751 7.59939 3.59961 7.15176 3.59961 6.59961C3.59982 6.04764 4.04764 5.59983 4.59961 5.59961ZM8.2002 5.59961C8.75227 5.59971 9.19999 6.04756 9.2002 6.59961C9.2002 7.15183 8.7524 7.59951 8.2002 7.59961C7.64791 7.59961 7.2002 7.15189 7.2002 6.59961C7.20041 6.0475 7.64804 5.59961 8.2002 5.59961ZM11.5996 0C11.9309 0 12.199 0.268417 12.1992 0.599609V2.2002H13.7998C14.1311 2.2002 14.3993 2.46852 14.3994 2.7998C14.3994 3.13118 14.1312 3.39941 13.7998 3.39941H12.1992V5C12.199 5.33119 11.9309 5.59961 11.5996 5.59961C11.2686 5.59939 11.0002 5.33106 11 5V3.39941H9.39941C9.06832 3.39909 8.7998 3.13098 8.7998 2.7998C8.79991 2.46872 9.06838 2.20052 9.39941 2.2002H11V0.599609C11.0002 0.268552 11.2686 0.000217885 11.5996 0Z" fill="var(--fill-0, #1D1C1D)"/>
</svg>
