<svg preserveAspectRatio="none" width="100%" height="100%" overflow="visible" style="display: block;" viewBox="0 0 15 15" fill="none" xmlns="http://www.w3.org/2000/svg">
<path id="Union" d="M9.69043 0.824219C9.78752 0.280534 10.3069 -0.0814615 10.8506 0.015625C11.3942 0.112735 11.7563 0.632114 11.6592 1.17578L11.2266 3.59961H13.5996C14.1518 3.59972 14.5996 4.04743 14.5996 4.59961C14.5996 5.15183 14.1518 5.5995 13.5996 5.59961H10.8691L10.1816 9.44922H12.7002L12.8018 9.4541C13.306 9.50513 13.6999 9.93155 13.7002 10.4492C13.7002 10.9671 13.3061 11.3932 12.8018 11.4443L12.7002 11.4492H9.82422L9.40918 13.7754C9.31196 14.3189 8.79259 14.681 8.24902 14.584C7.70547 14.4869 7.34353 13.9674 7.44043 13.4238L7.79297 11.4492H5.54883L5.13379 13.7754C5.03654 14.3189 4.5172 14.681 3.97363 14.584C3.43029 14.4867 3.0682 13.9673 3.16504 13.4238L3.51758 11.4492H1C0.447715 11.4492 0 11.0015 0 10.4492C0.000261784 9.89716 0.447877 9.44922 1 9.44922H3.875L4.5625 5.59961H1.89941C1.34731 5.5994 0.899414 5.15176 0.899414 4.59961C0.899465 4.0475 1.34734 3.59982 1.89941 3.59961H4.91895L5.41504 0.824219C5.51211 0.280644 6.03163 -0.0812576 6.5752 0.015625C7.11888 0.112712 7.48088 0.632097 7.38379 1.17578L6.95117 3.59961H9.19434L9.69043 0.824219ZM5.90625 9.44922H8.15039L8.83789 5.59961H6.59375L5.90625 9.44922Z" fill="var(--fill-0, #EAEAEA)"/>
</svg>
