<svg preserveAspectRatio="none" width="100%" height="100%" overflow="visible" style="display: block;" viewBox="0 0 10 10" fill="none" xmlns="http://www.w3.org/2000/svg">
<path id="Union" d="M5.9834 0.448242C6.58091 -0.149139 7.55 -0.14922 8.14746 0.448242L8.7793 1.08105C9.37656 1.67858 9.37672 2.64769 8.7793 3.24512L3.73828 8.28613C3.68304 8.34134 3.61438 8.38171 3.53906 8.40234L0.568359 9.21191C0.412723 9.25429 0.245973 9.20967 0.131836 9.0957C0.0179179 8.98158 -0.0267287 8.81478 0.015625 8.65918L0.826172 5.68945L0.844727 5.63379C0.867244 5.58007 0.900936 5.53072 0.942383 5.48926L5.9834 0.448242ZM1.66309 6.04004L1.0918 8.13574L3.18457 7.56543L6.96777 3.78223L5.44434 2.25879L1.66309 6.04004ZM7.51074 1.08496C7.26475 0.838971 6.86616 0.839052 6.62012 1.08496L6.08105 1.62207L7.60449 3.14551L8.14355 2.6084C8.38929 2.36253 8.38903 1.9638 8.14355 1.71777L7.51074 1.08496Z" fill="var(--fill-0, white)"/>
</svg>
