<svg preserveAspectRatio="none" width="100%" height="100%" overflow="visible" style="display: block;" viewBox="0 0 13 16" fill="none" xmlns="http://www.w3.org/2000/svg">
<path id="Union" d="M12.25 5.5C12.6642 5.5 13 5.83579 13 6.25V6.5C13 9.83611 10.4865 12.5831 7.25 12.9551V14.5H8.75C9.16421 14.5 9.5 14.8358 9.5 15.25C9.5 15.6642 9.16421 16 8.75 16H4.25C3.83579 16 3.5 15.6642 3.5 15.25C3.5 14.8358 3.83579 14.5 4.25 14.5H5.75V12.9551C2.51354 12.5831 0 9.83611 0 6.5V6.25C0 5.83579 0.335786 5.5 0.75 5.5C1.16421 5.5 1.5 5.83579 1.5 6.25V6.5C1.5 9.26142 3.73858 11.5 6.5 11.5C9.26142 11.5 11.5 9.26142 11.5 6.5V6.25C11.5 5.83579 11.8358 5.5 12.25 5.5ZM6.5 0C8.433 0 10 1.567 10 3.5V6.5C10 8.433 8.433 10 6.5 10C4.567 10 3 8.433 3 6.5V3.5C3 1.567 4.567 0 6.5 0ZM6.5 1.5C5.39543 1.5 4.5 2.39543 4.5 3.5V6.5C4.5 7.60457 5.39543 8.5 6.5 8.5C7.60457 8.5 8.5 7.60457 8.5 6.5V3.5C8.5 2.39543 7.60457 1.5 6.5 1.5Z" fill="var(--fill-0, #1D1C1D)"/>
</svg>
