<svg preserveAspectRatio="none" width="100%" height="100%" overflow="visible" style="display: block;" viewBox="0 0 12 14" fill="none" xmlns="http://www.w3.org/2000/svg">
<path id="Union" d="M10.1899 0C10.4635 0.000110139 10.7164 0.148894 10.8481 0.388672C10.9798 0.628494 10.9695 0.921464 10.8228 1.15234L8.75635 4.40039H10.1362C11.682 4.40064 12.4359 6.30373 11.2612 7.3457C9.23449 9.14186 6.276 11.7417 4.47315 13.3242C3.47489 14.2 2.01463 13.1131 2.51416 11.9141L3.68604 9.09961H2.25245C0.643825 9.09954 -0.445291 7.46043 0.178227 5.97754L2.49854 0.458984L2.54932 0.359375C2.68397 0.13854 2.92602 0.000105329 3.18995 0H10.1899ZM1.56104 6.55957C1.35347 7.05377 1.71638 7.59954 2.25245 7.59961H4.81104C5.06157 7.59971 5.296 7.72521 5.43506 7.93359C5.57411 8.14215 5.59973 8.40726 5.50342 8.63867L4.33057 11.4512C6.12062 9.87898 8.53486 7.75791 10.2661 6.22363C10.3899 6.11356 10.3264 5.90062 10.1362 5.90039H7.39014C7.11645 5.90035 6.86462 5.75067 6.73291 5.51074C6.60125 5.2708 6.61039 4.97798 6.75733 4.74707L8.82373 1.5H3.68799L1.56104 6.55957Z" fill="var(--fill-0, #454447)"/>
</svg>
