<svg preserveAspectRatio="none" width="100%" height="100%" overflow="visible" style="display: block;" viewBox="0 0 18 18" fill="none" xmlns="http://www.w3.org/2000/svg">
<path id="Union" d="M8.25 1.02571C8.66421 1.02571 9 1.3615 9 1.77571C8.99976 2.18972 8.66407 2.52571 8.25 2.52571H3.75C2.50736 2.52571 1.5 3.53307 1.5 4.77571V13.2757C1.50024 14.5181 2.50751 15.5257 3.75 15.5257H12.25C13.4925 15.5257 14.4998 14.5181 14.5 13.2757V8.77571C14.5 8.3615 14.8358 8.02571 15.25 8.02571C15.6642 8.02571 16 8.3615 16 8.77571V13.2757C15.9998 15.3466 14.3209 17.0257 12.25 17.0257H3.75C1.67908 17.0257 0.0002399 15.3466 0 13.2757V4.77571C0 2.70464 1.67893 1.02571 3.75 1.02571H8.25ZM12.7324 0.732742C13.7087 -0.243395 15.2913 -0.243392 16.2676 0.732742L16.293 0.758133C17.2689 1.73443 17.269 3.31709 16.293 4.29329L9.53027 11.056C9.431 11.1552 9.30567 11.2246 9.16895 11.2562L5.91895 12.0062C5.66711 12.0643 5.40255 11.9887 5.21973 11.806C5.03698 11.6232 4.96157 11.3586 5.01953 11.1068L5.76953 7.85677L5.7998 7.75716C5.83729 7.65941 5.89519 7.57004 5.96973 7.49544L12.7324 0.732742ZM7.18164 8.40364L6.75 10.2747L8.62109 9.84309L13.6885 4.77473L12.249 3.33528L7.18164 8.40364ZM15.207 1.79329C14.8165 1.40294 14.1835 1.40294 13.793 1.79329L13.3096 2.27473L14.749 3.71419L15.2324 3.23274C15.6227 2.84232 15.6225 2.20919 15.2324 1.81868L15.207 1.79329Z" fill="var(--fill-0, #1D1C1D)"/>
</svg>
