<svg preserveAspectRatio="none" width="100%" height="100%" overflow="visible" style="display: block;" viewBox="0 0 16 16" fill="none" xmlns="http://www.w3.org/2000/svg">
<path id="Union" d="M10.7656 0.824219C10.8628 0.280636 11.3822 -0.0814334 11.9258 0.015625C12.4694 0.112702 12.8314 0.632157 12.7344 1.17578L12.2305 4H15L15.1025 4.00488C15.6066 4.05621 15.9999 4.4824 16 5C16 5.51767 15.6067 5.94378 15.1025 5.99512L15 6H11.873L11.0693 10.5H14C14.5522 10.5 14.9999 10.9478 15 11.5C15 12.0523 14.5523 12.5 14 12.5H10.7119L10.2344 15.1758C10.1373 15.7195 9.6179 16.0815 9.07422 15.9844C8.53055 15.8873 8.16854 15.3679 8.26562 14.8242L8.68066 12.5H5.96191L5.48438 15.1758C5.38729 15.7195 4.8679 16.0815 4.32422 15.9844C3.78055 15.8873 3.41854 15.3679 3.51562 14.8242L3.93066 12.5H1C0.447715 12.5 0 12.0523 0 11.5C9.17307e-05 10.9478 0.447772 10.5 1 10.5H4.28809L5.0918 6H2C1.44772 6 1 5.55228 1 5C1.00009 4.44779 1.44777 4 2 4H5.44824L6.01562 0.824219C6.11279 0.280636 6.63216 -0.0814334 7.17578 0.015625C7.71941 0.112702 8.08136 0.632157 7.98438 1.17578L7.48047 4H10.1982L10.7656 0.824219ZM6.31934 10.5H9.03809L9.8418 6H7.12305L6.31934 10.5Z" fill="var(--fill-0, #1D1C1D)"/>
</svg>
