<svg preserveAspectRatio="none" width="100%" height="100%" overflow="visible" style="display: block;" viewBox="0 0 13 15" fill="none" xmlns="http://www.w3.org/2000/svg">
<path id="Union" d="M6.375 0C8.65317 0 10.5 1.84683 10.5 4.125V5.39941C11.7426 5.39941 12.7499 6.40686 12.75 7.64941V13.249C12.75 14.2155 11.9665 14.999 11 14.999H1.75C0.783502 14.999 0 14.2155 0 13.249V7.64941C0.000105909 6.40686 1.00743 5.39941 2.25 5.39941V4.125C2.25 1.84683 4.09683 3.30216e-07 6.375 0ZM2.25 6.89941C1.83585 6.89941 1.50011 7.23529 1.5 7.64941V13.249C1.5 13.3871 1.61193 13.499 1.75 13.499H11C11.1381 13.499 11.25 13.3871 11.25 13.249V7.64941C11.2499 7.23529 10.9141 6.89941 10.5 6.89941H2.25ZM6.375 1.5C4.92525 1.5 3.75 2.67525 3.75 4.125V5.39941H9V4.125C9 2.67525 7.82475 1.5 6.375 1.5Z" fill="var(--fill-0, #EAEAEA)"/>
</svg>
