<svg preserveAspectRatio="none" width="100%" height="100%" overflow="visible" style="display: block;" viewBox="0 0 17 17" fill="none" xmlns="http://www.w3.org/2000/svg">
<path id="Union" d="M13.2436 0C14.125 0.000202249 14.8371 0.712373 14.8373 1.59375C14.8373 2.24387 14.4452 2.8024 13.8871 3.04883C14.2315 3.3546 14.5523 3.69057 14.8403 4.05273L14.8432 4.05859C16.0781 5.6231 16.6276 7.54692 16.3871 9.47656C15.9031 13.3565 12.3463 16.2246 8.24064 16.2246C7.92312 16.2246 7.60215 16.2065 7.28166 16.1709C5.01964 15.9244 2.95073 14.8046 1.60002 13.0977C0.365134 11.5332 -0.184386 9.60929 0.0560717 7.67969C0.284764 5.84223 1.20556 4.2333 2.54435 3.0459C1.9892 2.79355 1.60295 2.24094 1.60295 1.59375C1.6032 0.712364 2.31529 0.000187439 3.1967 0C4.07821 5.33717e-05 4.79117 0.712281 4.79142 1.59375C4.79142 1.60563 4.78849 1.61508 4.78849 1.62695C6.1125 1.05999 7.61194 0.813213 9.16154 0.982422C10.0312 1.07743 10.8711 1.30332 11.6547 1.63867C11.6517 1.62387 11.6488 1.60855 11.6488 1.59375C11.6491 0.712247 12.362 0 13.2436 0ZM9.03361 2.16406C5.17736 1.7455 1.67734 4.28662 1.23478 7.82812C1.03293 9.43699 1.49287 11.0492 2.53166 12.3613C3.68351 13.8189 5.46216 14.7785 7.40959 14.9893C11.2658 15.4078 14.7658 12.8666 15.2084 9.3252C15.4103 7.71616 14.9506 6.10319 13.9115 4.79102C12.7597 3.33347 10.981 2.37486 9.03361 2.16406ZM8.19963 3.51758C11.6044 3.5178 14.3713 5.87812 14.3715 8.78125C14.3715 11.6845 11.6045 14.0447 8.19963 14.0449C4.79457 14.0448 2.0278 11.6846 2.02775 8.78125C2.02789 7.11001 2.96906 5.52466 4.54826 4.53613C4.80038 4.37632 5.13274 4.43205 5.32267 4.66309C5.334 4.67492 6.0931 5.59052 6.95256 5.86328C7.10671 5.91366 7.25562 5.94892 7.39201 5.97266C6.97348 5.33442 6.62945 4.58029 6.84318 4.04004C6.95307 3.76439 7.19329 3.58253 7.48088 3.55273C7.71816 3.52902 7.95938 3.51758 8.19963 3.51758ZM8.09611 4.81543C8.23867 5.11822 8.51733 5.57551 9.03947 6.1748C9.17581 6.32895 9.22055 6.54551 9.15861 6.74121C9.09632 6.93697 8.93539 7.08904 8.73674 7.13965C8.63969 7.16387 7.76771 7.36732 6.59416 6.99414C5.97077 6.79525 5.41771 6.39131 5.02287 6.04102C4.70271 6.35839 4.84529 6.75586 4.90177 6.88086C5.03825 7.17753 4.91303 7.53117 4.61955 7.6709C4.53658 7.71238 4.4467 7.7304 4.36076 7.73047C4.1442 7.73031 3.93628 7.611 3.83244 7.40332C3.78207 7.30247 3.73519 7.17738 3.69963 7.03809C3.38797 7.57235 3.21532 8.16685 3.21525 8.78125C3.21529 11.0285 5.45066 12.8574 8.19963 12.8574L8.1967 12.8545C10.9455 12.8543 13.181 11.0255 13.1811 8.77832C13.1809 7.57327 12.5341 6.48925 11.5102 5.74121C11.7565 6.1448 11.9019 6.5342 11.9643 6.83398C12.0293 7.15421 11.8243 7.46847 11.5043 7.53711C11.4629 7.54598 11.4236 7.54881 11.3822 7.54883C11.1091 7.54881 10.8625 7.35913 10.8031 7.08008C10.7814 6.98723 10.3373 5.18637 8.09611 4.81543ZM9.32756 8.46973C10.0994 8.26195 10.8743 8.25279 11.6283 8.56152C11.7202 8.60005 11.809 8.65369 11.8949 8.70703H11.9076C12.0678 8.81088 12.1443 8.95063 12.1059 9.15527C12.0346 9.54118 11.9906 9.93339 11.9194 10.3223C11.8511 10.7023 11.5924 10.9663 11.2065 11.002C10.6781 11.0524 10.1469 11.079 9.61857 11.0879C9.19404 11.0968 8.89068 10.9041 8.76896 10.4707C8.65616 10.0729 8.5402 9.67507 8.40959 9.28027C8.3828 9.19723 8.29119 9.13468 8.23185 9.06348C8.16953 9.1347 8.08088 9.1972 8.05412 9.28027C7.9235 9.67509 7.80755 10.0729 7.69474 10.4707C7.57302 10.9041 7.26967 11.0968 6.84513 11.0879C6.31387 11.079 5.78554 11.0524 5.25724 11.002C4.87133 10.9663 4.6156 10.7052 4.54435 10.3223C4.47312 9.93637 4.42907 9.54117 4.35783 9.15527C4.31936 8.94763 4.39384 8.81089 4.55705 8.70703C4.64004 8.65075 4.72882 8.60005 4.82365 8.56152C5.57765 8.2528 6.35262 8.26196 7.12443 8.46973C7.49255 8.56769 7.85788 8.64453 8.22599 8.64453C8.59412 8.64156 8.95943 8.5677 9.32756 8.46973Z" fill="var(--fill-0, white)"/>
</svg>
