<svg preserveAspectRatio="none" width="100%" height="100%" overflow="visible" style="display: block;" viewBox="0 0 17 17" fill="none" xmlns="http://www.w3.org/2000/svg">
<path id="Union" d="M7.40895 0.333508C8.06807 -0.111236 8.93146 -0.111236 9.59059 0.333508L16.6697 5.11085C17.0126 5.34259 17.1032 5.80869 16.8718 6.15187C16.6401 6.49497 16.1731 6.58555 15.8298 6.35402L15.4998 6.13038V13.1421C15.4998 15.2132 13.8208 16.9819 11.7498 16.9819H5.24977C3.17871 16.9819 1.49977 15.2132 1.49977 13.1421V6.13038L1.16969 6.35402C0.826428 6.58552 0.359408 6.49498 0.127695 6.15187C-0.103675 5.80871 -0.0130204 5.3426 0.329844 5.11085L7.40895 0.333508ZM10.4998 8.48195C9.94755 8.48196 9.49985 8.92974 9.49977 9.48195V10.4819C9.49977 11.0342 9.9475 11.4819 10.4998 11.4819H11.4998C12.052 11.4819 12.4998 11.0342 12.4998 10.4819V9.48195C12.4997 8.92973 12.052 8.48195 11.4998 8.48195H10.4998Z" fill="var(--fill-0, white)"/>
</svg>
