<svg preserveAspectRatio="none" width="100%" height="100%" overflow="visible" style="display: block;" viewBox="0 0 17 18" fill="none" xmlns="http://www.w3.org/2000/svg">
<path id="Union" d="M0.114385 12.56C0.333982 12.2089 0.79642 12.1022 1.14759 12.3217L7.67103 16.3989C7.88275 16.5308 8.1482 16.5305 8.35755 16.3998C9.80736 15.4937 13.04 13.4738 14.8771 12.3256C15.2283 12.1063 15.6908 12.2127 15.9103 12.5639C16.1295 12.915 16.0228 13.3775 15.672 13.5971C13.8349 14.7453 10.6023 16.7652 9.15247 17.6713C8.45432 18.1076 7.572 18.105 6.8761 17.6704L0.352667 13.5932C0.00148424 13.3736 -0.105129 12.9112 0.114385 12.56ZM0.114385 9.06C0.333982 8.70895 0.79642 8.60224 1.14759 8.82172L7.67103 12.8989C7.88275 13.0308 8.1482 13.0305 8.35755 12.8998C9.80736 11.9937 13.04 9.97382 14.8771 8.82562C15.2283 8.60631 15.6908 8.71274 15.9103 9.06391C16.1295 9.41499 16.0228 9.87753 15.672 10.0971C13.8349 11.2453 10.6023 13.2652 9.15247 14.1713C8.45432 14.6076 7.572 14.605 6.8761 14.1704L0.352667 10.0932C0.00148424 9.87365 -0.105129 9.41122 0.114385 9.06ZM6.87513 0.326601C7.57231 -0.109137 8.45724 -0.109137 9.15442 0.326601L15.2726 4.14984C16.269 4.7726 16.269 6.22436 15.2726 6.84711L9.15442 10.6704C8.45728 11.106 7.57224 11.106 6.87513 10.6704L0.756963 6.84711C-0.239373 6.2244 -0.239235 4.77266 0.756963 4.14984L6.87513 0.326601ZM8.3595 1.59809C8.14873 1.46635 7.88082 1.46635 7.67005 1.59809L1.55189 5.4223C1.49587 5.45764 1.49574 5.53942 1.55189 5.57465L7.67005 9.39887C7.88076 9.53055 8.14876 9.53047 8.3595 9.39887L14.4777 5.57465C14.5339 5.53938 14.5339 5.45758 14.4777 5.4223L8.3595 1.59809Z" fill="var(--fill-0, #1D1C1D)"/>
</svg>
