<svg preserveAspectRatio="none" width="100%" height="100%" overflow="visible" style="display: block;" viewBox="0 0 18 18" fill="none" xmlns="http://www.w3.org/2000/svg">
<path id="Union" d="M9 0C13.9706 0 18 4.02944 18 9V9.64453C18 11.4976 16.4976 13 14.6445 13C13.7441 12.9999 12.9502 12.5488 12.4727 11.8613C11.6473 12.8619 10.3983 13.5 9 13.5C6.51472 13.5 4.5 11.4853 4.5 9C4.5 6.51472 6.51472 4.5 9 4.5C10.1559 4.5 11.2099 4.93604 12.0068 5.65234C12.0547 5.2843 12.3689 5 12.75 5C13.1642 5 13.5 5.33579 13.5 5.75V10.3555C13.5001 10.9875 14.0125 11.4999 14.6445 11.5C15.6692 11.5 16.5 10.6692 16.5 9.64453V9C16.5 4.85786 13.1421 1.5 9 1.5C4.85786 1.5 1.5 4.85786 1.5 9C1.5 13.1421 4.85786 16.5 9 16.5C10.6097 16.5 12.0992 15.9939 13.3203 15.1318C13.6586 14.893 14.1263 14.9733 14.3652 15.3115C14.6041 15.6499 14.5239 16.1185 14.1855 16.3574C12.7196 17.3923 10.9295 18 9 18C4.02944 18 0 13.9706 0 9C0 4.02944 4.02944 0 9 0ZM9 6C7.34315 6 6 7.34315 6 9C6 10.6569 7.34315 12 9 12C10.6569 12 12 10.6569 12 9C12 7.34315 10.6569 6 9 6Z" fill="var(--fill-0, #1D1C1D)"/>
</svg>
