<svg preserveAspectRatio="none" width="100%" height="100%" overflow="visible" style="display: block;" viewBox="0 0 18 18" fill="none" xmlns="http://www.w3.org/2000/svg">
<path id="Union" d="M8.25 1.02484C8.66421 1.02484 9 1.36063 9 1.77484C8.99988 2.18896 8.66414 2.52484 8.25 2.52484H3.75C2.50736 2.52484 1.5 3.5322 1.5 4.77484V13.2748C1.50012 14.5174 2.50743 15.5248 3.75 15.5248H12.25C13.4926 15.5248 14.4999 14.5174 14.5 13.2748V8.77484C14.5 8.36063 14.8358 8.02484 15.25 8.02484C15.6642 8.02484 16 8.36063 16 8.77484V13.2748C15.9999 15.3458 14.321 17.0248 12.25 17.0248H3.75C1.679 17.0248 0.000115575 15.3458 0 13.2748V4.77484C0 2.70377 1.67893 1.02484 3.75 1.02484H8.25ZM12.7324 0.731872C13.7087 -0.244265 15.2913 -0.244263 16.2676 0.731872L16.293 0.757262C17.269 1.73355 17.2691 3.31618 16.293 4.29242L9.53027 11.0551C9.43098 11.1544 9.30572 11.2237 9.16895 11.2553L5.91895 12.0053C5.66704 12.0634 5.40256 11.9879 5.21973 11.8051C5.03692 11.6223 4.96147 11.3578 5.01953 11.1059L5.76953 7.8559L5.7998 7.75629C5.83731 7.65849 5.89514 7.56919 5.96973 7.49457L12.7324 0.731872ZM7.18164 8.40277L6.75 10.2739L8.62109 9.84222L13.6885 4.77386L12.249 3.33441L7.18164 8.40277ZM15.207 1.79242C14.8165 1.40207 14.1835 1.40207 13.793 1.79242L13.3096 2.27386L14.749 3.71332L15.2324 3.23187C15.6227 2.84142 15.6227 2.20831 15.2324 1.81781L15.207 1.79242Z" fill="var(--fill-0, white)"/>
</svg>
