<svg preserveAspectRatio="none" width="100%" height="100%" overflow="visible" style="display: block;" viewBox="0 0 17 17" fill="none" xmlns="http://www.w3.org/2000/svg">
<path id="Union" d="M8.50098 0C9.18944 0 9.8112 0.246105 10.2676 0.761719C10.5987 1.13598 10.8064 1.61195 10.918 2.14551C12.1272 2.5142 13.022 3.28157 13.6045 4.50195C14.2084 5.76767 14.4593 7.48961 14.4941 9.68359L16.3633 11.5615L16.376 11.5732L16.3867 11.5859C17.0226 12.2854 17.1929 13.1762 16.7598 13.9277C16.3534 14.6325 15.5358 15 14.6553 15H11.2715C11.1436 15.3898 10.9358 15.7751 10.6338 16.1045C10.1411 16.6418 9.42619 17 8.51465 17C7.59675 17 6.87579 16.6444 6.37793 16.1074C6.07197 15.7774 5.86183 15.3911 5.73242 15H2.34375C1.46336 14.9999 0.646512 14.6324 0.240234 13.9277C-0.192977 13.1762 -0.0234801 12.2854 0.612305 11.5859L0.624023 11.5732L0.636719 11.5605L2.50684 9.68359C2.54262 7.48955 2.79476 5.76761 3.39844 4.50195C3.98044 3.28189 4.87424 2.51435 6.08301 2.14551C6.1946 1.61188 6.40324 1.13603 6.73438 0.761719C7.19075 0.246104 7.81252 1.07955e-06 8.50098 0ZM8.50098 1.5C8.1897 1.5 7.99616 1.59908 7.85742 1.75586C7.70084 1.93286 7.54895 2.26025 7.49805 2.81836L7.44727 3.37598L6.89844 3.48535C5.87455 3.69013 5.20715 4.19542 4.75293 5.14746C4.26805 6.16392 4.01696 7.71404 4.00098 10.0049L3.99902 10.3125L3.78223 10.5293L1.71387 12.6035C1.56703 12.7678 1.51916 12.8994 1.50586 12.9805C1.4931 13.0585 1.50702 13.1214 1.54004 13.1787C1.6091 13.2983 1.8444 13.4999 2.34375 13.5H7.00879L7.07812 14.1719C7.11217 14.4987 7.24868 14.84 7.47852 15.0879C7.69311 15.3192 8.01537 15.5 8.51465 15.5C9.00113 15.5 9.3166 15.3218 9.52832 15.0908C9.75542 14.8431 9.89023 14.5017 9.92383 14.1738L9.99316 13.5H14.6553C15.1551 13.5 15.391 13.2983 15.46 13.1787C15.493 13.1215 15.5069 13.0585 15.4941 12.9805C15.4807 12.8985 15.4309 12.7655 15.2803 12.5986L13.2197 10.5293L13.0029 10.3115L13.001 10.0049C12.9861 7.71406 12.7351 6.16382 12.25 5.14746C11.7956 4.1955 11.1275 3.69015 10.1035 3.48535L9.55469 3.37598L9.50391 2.81836C9.45301 2.26025 9.30111 1.93286 9.14453 1.75586C9.00579 1.59908 8.81225 1.5 8.50098 1.5Z" fill="var(--fill-0, #1D1C1D)"/>
</svg>
