<svg preserveAspectRatio="none" width="100%" height="100%" overflow="visible" style="display: block;" viewBox="0 0 17 17" fill="none" xmlns="http://www.w3.org/2000/svg">
<path id="Union" d="M5.6126 0.247485C6.32752 -0.290545 7.40029 0.0879179 7.58428 1.0053L8.16045 3.8842L9.81084 5.53557C10.7878 5.32033 11.7615 5.21743 12.7562 5.35002C13.9027 5.50292 15.0263 5.96232 16.1878 6.83342C16.3615 6.96383 16.4702 7.16366 16.4856 7.3803C16.5009 7.5969 16.4213 7.80968 16.2679 7.96331L12.6458 11.5844L16.7679 15.7065C17.0606 15.9993 17.0605 16.4741 16.7679 16.767C16.475 17.0599 16.0002 17.0598 15.7073 16.767L11.5853 12.6449L7.96416 16.267C7.81056 16.4206 7.5978 16.5 7.38115 16.4848C7.16442 16.4694 6.96473 16.3607 6.83428 16.1869C5.96318 15.0254 5.50375 13.9019 5.35088 12.7553C5.21833 11.7607 5.32117 10.7869 5.53642 9.80998L3.88506 8.15959L1.00615 7.58342C0.0275471 7.38733 -0.338298 6.17989 0.367479 5.47405L5.4749 0.366625L5.6126 0.247485ZM1.7581 6.20354L4.40264 6.73381L4.50908 6.76311C4.6126 6.80034 4.70701 6.86046 4.78545 6.93889L6.89287 9.04534C7.07908 9.23155 7.15389 9.50274 7.09014 9.75823C6.83388 10.7834 6.72187 11.6842 6.83818 12.5571C6.92412 13.2016 7.13901 13.8591 7.54912 14.56L14.5608 7.54827C13.86 7.13814 13.2024 6.92329 12.5579 6.83733C11.6851 6.72097 10.7842 6.83305 9.75908 7.08928C9.5035 7.15318 9.23248 7.0783 9.04619 6.89202L6.93974 4.78459C6.83512 4.67996 6.76373 4.54686 6.73467 4.40178L6.20439 1.75725L1.7581 6.20354Z" fill="var(--fill-0, #1D1C1D)"/>
</svg>
