<svg preserveAspectRatio="none" width="100%" height="100%" overflow="visible" style="display: block;" viewBox="0 0 17 17" fill="none" xmlns="http://www.w3.org/2000/svg">
<path id="Union" d="M8.5 0C13.1944 0 17 3.80558 17 8.5C17 9.88805 16.6665 11.2006 16.0752 12.3594L16.9785 16.0723C17.0404 16.3266 16.9654 16.5952 16.7803 16.7803C16.5952 16.9654 16.3266 17.0404 16.0723 16.9785L12.3594 16.0752C11.2006 16.6665 9.88805 17 8.5 17C3.80558 17 0 13.1944 0 8.5C0 3.80558 3.80558 0 8.5 0ZM5.25 9.5C4.83579 9.5 4.5 9.83579 4.5 10.25C4.5 10.6642 4.83579 11 5.25 11H9.75C10.1642 11 10.5 10.6642 10.5 10.25C10.5 9.83579 10.1642 9.5 9.75 9.5H5.25ZM5.25 6C4.83579 6 4.5 6.33579 4.5 6.75C4.5 7.16421 4.83579 7.5 5.25 7.5H11.75C12.1642 7.5 12.5 7.16421 12.5 6.75C12.5 6.33579 12.1642 6 11.75 6H5.25Z" fill="var(--fill-0, #1D1C1D)"/>
</svg>
