<svg preserveAspectRatio="none" width="100%" height="100%" overflow="visible" style="display: block;" viewBox="0 0 18 18" fill="none" xmlns="http://www.w3.org/2000/svg">
<path id="Union" d="M9 0C13.9706 0 18 4.02944 18 9C18 13.9706 13.9706 18 9 18C4.02944 18 0 13.9706 0 9C0 4.02944 4.02944 0 9 0ZM9 1.5C4.85786 1.5 1.5 4.85786 1.5 9C1.5 13.1421 4.85786 16.5 9 16.5C13.1421 16.5 16.5 13.1421 16.5 9C16.5 4.85786 13.1421 1.5 9 1.5ZM11.4395 10.7656C11.5689 10.3722 11.9933 10.1578 12.3867 10.2871C12.78 10.4166 12.9945 10.841 12.8652 11.2344C12.2584 13.0791 10.6261 13.9999 9.02734 14C7.4285 14 5.79631 13.0791 5.18945 11.2344C5.0601 10.8409 5.27454 10.4165 5.66797 10.2871C6.06135 10.1579 6.48584 10.3723 6.61523 10.7656C6.99528 11.9207 7.99468 12.5 9.02734 12.5C10.0599 12.4999 11.0595 11.9207 11.4395 10.7656ZM6.5 5.5C7.32843 5.5 8 6.17157 8 7C8 7.82843 7.32843 8.5 6.5 8.5C5.67157 8.5 5 7.82843 5 7C5 6.17157 5.67157 5.5 6.5 5.5ZM11.5 5.5C12.3284 5.5 13 6.17157 13 7C13 7.82843 12.3284 8.5 11.5 8.5C10.6716 8.5 10 7.82843 10 7C10 6.17157 10.6716 5.5 11.5 5.5Z" fill="var(--fill-0, #1D1C1D)"/>
</svg>
