<svg preserveAspectRatio="none" width="100%" height="100%" overflow="visible" style="display: block;" viewBox="0 0 14 14" fill="none" xmlns="http://www.w3.org/2000/svg">
<path id="Union" d="M4.55078 0.227539C5.16481 -0.234265 6.06562 0.0387913 6.32031 0.763672L6.36523 0.925781L6.81641 3.18457L8.04785 4.41602C8.81325 4.25346 9.5842 4.17679 10.375 4.28223C11.3206 4.40834 12.2433 4.78669 13.1904 5.49707C13.3642 5.62753 13.4729 5.82721 13.4883 6.04395C13.5036 6.26076 13.4242 6.47423 13.2705 6.62793L10.4795 9.41895L13.6699 12.6094C13.9627 12.9023 13.9628 13.3771 13.6699 13.6699C13.377 13.9627 12.9022 13.9627 12.6094 13.6699L9.41895 10.4795L6.62793 13.2705C6.4742 13.4242 6.26077 13.5037 6.04395 13.4883C5.82723 13.4729 5.62753 13.3641 5.49707 13.1904C4.78673 12.2433 4.40836 11.3206 4.28223 10.375C4.17679 9.58426 4.25348 8.8132 4.41602 8.04785L3.18457 6.81641L0.925781 6.36523C0.0251767 6.18511 -0.311414 5.07332 0.337891 4.42383L4.42383 0.337891L4.55078 0.227539ZM1.86035 5.02148L3.70117 5.39062L3.80762 5.41992C3.91131 5.45715 4.00642 5.51716 4.08496 5.5957L5.77051 7.28125C5.95655 7.46748 6.03156 7.73776 5.96777 7.99316C5.76502 8.80423 5.67992 9.50465 5.76953 10.1768C5.82851 10.6188 5.96802 11.0703 6.22461 11.5508L11.5508 6.22461C11.0703 5.96799 10.6188 5.8285 10.1768 5.76953C9.5046 5.67991 8.8043 5.76499 7.99316 5.96777C7.73777 6.03154 7.46747 5.95654 7.28125 5.77051L5.5957 4.08496C5.49104 3.9803 5.41968 3.8463 5.39062 3.70117L5.02148 1.86035L1.86035 5.02148Z" fill="var(--fill-0, #454447)"/>
</svg>
