<svg preserveAspectRatio="none" width="100%" height="100%" overflow="visible" style="display: block;" viewBox="0 0 18 18" fill="none" xmlns="http://www.w3.org/2000/svg">
<path id="Union" d="M8.25 1.02473C8.66414 1.02473 8.99989 1.36062 9 1.77473C9 2.18895 8.66421 2.52473 8.25 2.52473H3.75C2.50743 2.52473 1.50011 3.53219 1.5 4.77473V13.2747C1.5 14.5174 2.50736 15.5247 3.75 15.5247H12.25C13.4926 15.5247 14.5 14.5174 14.5 13.2747V8.77473C14.5001 8.36062 14.8359 8.02473 15.25 8.02473C15.6641 8.02473 15.9999 8.36062 16 8.77473V13.2747C16 15.3458 14.3211 17.0247 12.25 17.0247H3.75C1.67893 17.0247 0 15.3458 0 13.2747V4.77473C0.000114802 2.70376 1.679 1.02473 3.75 1.02473H8.25ZM12.7324 0.731766C13.7087 -0.24423 15.2913 -0.244227 16.2676 0.731766L16.293 0.757156C17.2691 1.7334 17.269 3.31603 16.293 4.29231L9.53027 11.055C9.43098 11.1543 9.30575 11.2236 9.16895 11.2552L5.91895 12.0052C5.66698 12.0634 5.40258 11.9879 5.21973 11.805C5.03695 11.6222 4.9614 11.3577 5.01953 11.1058L5.76953 7.85579L5.7998 7.75618C5.83733 7.65841 5.89513 7.56906 5.96973 7.49446L12.7324 0.731766ZM7.18164 8.40266L6.75 10.2738L8.62109 9.84212L13.6885 4.77376L12.249 3.3343L7.18164 8.40266ZM15.207 1.79231C14.8166 1.4021 14.1834 1.40211 13.793 1.79231L13.3096 2.27376L14.749 3.71321L15.2324 3.23177C15.6227 2.84126 15.6227 2.20816 15.2324 1.8177L15.207 1.79231Z" fill="var(--fill-0, white)"/>
</svg>
