<svg preserveAspectRatio="none" width="100%" height="100%" overflow="visible" style="display: block;" viewBox="0 0 16 16" fill="none" xmlns="http://www.w3.org/2000/svg">
<path id="Union" d="M8.00268 0C9.22506 2.13679e-08 10.3594 0.438022 11.1892 1.2666C12.0219 2.09813 12.5026 3.27734 12.5027 4.67285C12.5027 6.15063 11.8953 7.43067 11.0525 8.33887C10.8948 8.50875 10.7264 8.66786 10.5496 8.81445C11.1815 8.96919 11.8178 9.18451 12.4246 9.47168C13.8886 10.1647 15.2357 11.2993 15.8728 13.0283C16.1717 13.8395 15.9397 14.6182 15.4499 15.1602C14.9747 15.6858 14.2567 16 13.5027 16H2.50268C1.74873 15.9999 1.03061 15.6859 0.555419 15.1602C0.0657693 14.6182 -0.166215 13.8393 0.132567 13.0283C0.769641 11.2994 2.11689 10.1647 3.58081 9.47168C4.18745 9.18455 4.82402 8.9692 5.45581 8.81445C5.27911 8.66791 5.11047 8.50867 4.95288 8.33887C4.11016 7.43068 3.50268 6.15052 3.50268 4.67285C3.50272 3.27745 3.98363 2.09812 4.81616 1.2666C5.64595 0.437983 6.78037 9.41608e-05 8.00268 0ZM8.00268 10C6.85547 10.0001 5.45094 10.2457 4.22241 10.8271C2.99847 11.4066 2.00264 12.2908 1.53979 13.5469C1.45691 13.7719 1.50606 13.9743 1.6687 14.1543C1.84608 14.3505 2.15243 14.4999 2.50268 14.5H13.5027C13.853 14.5 14.1592 14.3505 14.3367 14.1543C14.4995 13.9742 14.5486 13.7721 14.4656 13.5469C14.0027 12.2907 13.007 11.4065 11.783 10.8271C10.5544 10.2457 9.14987 10 8.00268 10ZM8.00268 1.5C7.1422 1.50009 6.40089 1.80482 5.87671 2.32812C5.35536 2.84888 5.00272 3.63199 5.00268 4.67285C5.00268 5.73013 5.43722 6.65526 6.05249 7.31836C6.68158 7.9962 7.43262 8.33285 8.00268 8.33301C8.57274 8.33301 9.32368 7.99622 9.95288 7.31836C10.5682 6.65524 11.0027 5.73023 11.0027 4.67285C11.0027 3.63186 10.6501 2.84888 10.1287 2.32812C9.6044 1.80486 8.86323 1.5 8.00268 1.5Z" fill="var(--fill-0, #1D1C1D)"/>
</svg>
