<svg preserveAspectRatio="none" width="100%" height="100%" overflow="visible" style="display: block;" viewBox="0 0 14 14" fill="none" xmlns="http://www.w3.org/2000/svg">
<path id="Union" d="M4.65625 0C5.31624 0 5.9436 0.290158 6.37109 0.792969L7.17188 1.73535C7.31433 1.90295 7.52419 1.99994 7.74414 2H10.1504C12.2212 2.00021 13.9003 3.67915 13.9004 5.75V10.1504C13.9002 12.2211 12.2211 13.9002 10.1504 13.9004H3.75C1.67915 13.9003 0.000211081 12.2212 0 10.1504V3.75C0.000105516 1.67909 1.67909 0.000105626 3.75 0H4.65625ZM3.5498 6.2998C2.418 6.30002 1.50032 7.21783 1.5 8.34961V10.1504C1.50021 11.3928 2.50758 12.4003 3.75 12.4004H10.1504C11.3927 12.4002 12.4002 11.3927 12.4004 10.1504V8.34961C12.4001 7.2177 11.4816 6.2998 10.3496 6.2998H3.5498ZM3.75 1.5C2.50751 1.50011 1.50011 2.50752 1.5 3.75V5.45215C2.079 5.04181 2.78615 4.79989 3.5498 4.7998H10.3496C11.1024 4.7998 11.8006 5.03494 12.375 5.43457C12.2214 4.3417 11.2856 3.50019 10.1504 3.5H7.74414C7.08413 3.49994 6.45675 3.20992 6.0293 2.70703L5.22754 1.76465C5.08504 1.59713 4.87618 1.5 4.65625 1.5H3.75Z" fill="var(--fill-0, #454447)"/>
</svg>
