<svg preserveAspectRatio="none" width="100%" height="100%" overflow="visible" style="display: block;" viewBox="0 0 21 21" fill="none" xmlns="http://www.w3.org/2000/svg">
<path id="Union" d="M8.95896 0.333577C9.618 -0.111171 10.4815 -0.111003 11.1406 0.333577L19.7695 6.15682C20.1128 6.38849 20.2032 6.8545 19.9717 7.19783C19.7399 7.5409 19.2739 7.63159 18.9306 7.39998L18.4502 7.07479V15.6705C18.4501 18.1557 16.4354 20.2779 13.9502 20.2779H6.15036C3.66514 20.2779 1.65046 18.1557 1.65036 15.6705V7.07479L1.1699 7.39998C0.826583 7.63138 0.359527 7.54106 0.127904 7.19783C-0.10337 6.85472 -0.0126774 6.38859 0.330052 6.15682L8.95896 0.333577ZM12.4502 10.0787C11.7876 10.0788 11.2502 10.6154 11.25 11.2779V12.4781C11.25 13.1408 11.7875 13.6782 12.4502 13.6783H13.6504C14.3131 13.6783 14.8506 13.1408 14.8506 12.4781V11.2779C14.8504 10.6153 14.313 10.0787 13.6504 10.0787H12.4502Z" fill="var(--fill-0, #1D1C1D)"/>
</svg>
