<svg preserveAspectRatio="none" width="100%" height="100%" overflow="visible" style="display: block;" viewBox="0 0 18 14" fill="none" xmlns="http://www.w3.org/2000/svg">
<path id="Union" d="M10.75 0C11.9926 0 13 1.00736 13 2.25V3.54297L15.626 2.03125C16.4593 1.55145 17.5 2.15364 17.5 3.11523V10.8848C17.5 11.8464 16.4593 12.4485 15.626 11.9688L13 10.4561V11.75C13 12.9926 11.9926 14 10.75 14H2.25C1.00736 14 0 12.9926 0 11.75V2.25C0 1.00736 1.00736 0 2.25 0H10.75ZM2.25 1.5C1.83579 1.5 1.5 1.83579 1.5 2.25V11.75C1.5 12.1642 1.83579 12.5 2.25 12.5H10.75C11.1642 12.5 11.5 12.1642 11.5 11.75V9.15918C11.5 8.89139 11.6432 8.6438 11.875 8.50977C12.1067 8.37596 12.3921 8.3754 12.624 8.50879L16 10.4521V3.54688L12.624 5.49121C12.3921 5.6246 12.1067 5.62404 11.875 5.49023C11.6432 5.3562 11.5 5.10861 11.5 4.84082V2.25C11.5 1.83579 11.1642 1.5 10.75 1.5H2.25Z" fill="var(--fill-0, #1D1C1D)"/>
</svg>
