<svg preserveAspectRatio="none" width="100%" height="100%" overflow="visible" style="display: block;" viewBox="0 0 16 16" fill="none" xmlns="http://www.w3.org/2000/svg">
<path id="Union" d="M0 0.675161C0.000219056 0.211669 0.461543 -0.112839 0.900391 0.0364887L14.9365 7.06286C15.4203 7.30504 15.4201 7.99532 14.9365 8.23766L0.900391 15.264L0.831055 15.2806C0.407265 15.3822 3.41809e-09 15.0612 0 14.6254V10.5404C1.99126e-05 9.45054 0.872891 8.53339 1.98926 8.51403L7.875 8.36168C8.11749 8.35269 8.54966 8.14556 8.5498 7.65075C8.5498 7.15575 8.09953 6.93981 7.875 6.93981L1.98926 6.78649C0.872883 6.76712 0 5.84999 0 4.76012V0.675161Z" fill="var(--fill-0, #77757A)"/>
</svg>
