<svg preserveAspectRatio="none" width="100%" height="100%" overflow="visible" style="display: block;" viewBox="0 0 16 16" fill="none" xmlns="http://www.w3.org/2000/svg">
<path id="Union" d="M8.00293 0C9.2253 2.13679e-08 10.3596 0.438022 11.1895 1.2666C12.0221 2.09813 12.5029 3.27734 12.5029 4.67285C12.5029 6.15063 11.8955 7.43067 11.0527 8.33887C10.8951 8.50875 10.7266 8.66786 10.5498 8.81445C11.1817 8.96919 11.818 9.18451 12.4248 9.47168C13.8888 10.1647 15.2359 11.2993 15.873 13.0283C16.1719 13.8395 15.94 14.6182 15.4502 15.1602C14.9749 15.6858 14.2569 16 13.5029 16H2.50293C1.74897 15.9999 1.03085 15.6859 0.555664 15.1602C0.0660149 14.6182 -0.165969 13.8393 0.132812 13.0283C0.769887 11.2994 2.11713 10.1647 3.58105 9.47168C4.18769 9.18455 4.82426 8.9692 5.45605 8.81445C5.27936 8.66791 5.11072 8.50867 4.95312 8.33887C4.11041 7.43068 3.50293 6.15052 3.50293 4.67285C3.50296 3.27745 3.98387 2.09812 4.81641 1.2666C5.64619 0.437983 6.78061 9.41608e-05 8.00293 0ZM8.00293 10C6.85571 10.0001 5.45118 10.2457 4.22266 10.8271C2.99871 11.4066 2.00288 12.2908 1.54004 13.5469C1.45715 13.7719 1.5063 13.9743 1.66895 14.1543C1.84632 14.3505 2.15267 14.4999 2.50293 14.5H13.5029C13.8532 14.5 14.1594 14.3505 14.3369 14.1543C14.4997 13.9742 14.5488 13.7721 14.4658 13.5469C14.0029 12.2907 13.0073 11.4065 11.7832 10.8271C10.5546 10.2457 9.15012 10 8.00293 10ZM8.00293 1.5C7.14244 1.50009 6.40114 1.80482 5.87695 2.32812C5.35561 2.84888 5.00296 3.63199 5.00293 4.67285C5.00293 5.73013 5.43747 6.65526 6.05273 7.31836C6.68182 7.9962 7.43287 8.33285 8.00293 8.33301C8.57298 8.33301 9.32393 7.99622 9.95312 7.31836C10.5685 6.65524 11.0029 5.73023 11.0029 4.67285C11.0029 3.63186 10.6504 2.84888 10.1289 2.32812C9.60465 1.80486 8.86347 1.5 8.00293 1.5Z" fill="var(--fill-0, #454447)"/>
</svg>
