<svg preserveAspectRatio="none" width="100%" height="100%" overflow="visible" style="display: block;" viewBox="0 0 14 15" fill="none" xmlns="http://www.w3.org/2000/svg">
<path id="Union" d="M0.113545 10.0679C0.333076 9.7168 0.795566 9.61025 1.14675 9.8296L6.21706 12.9985C6.42862 13.1306 6.69479 13.1306 6.90456 12.9995C8.12433 12.2372 10.561 10.7138 11.971 9.83253C12.3222 9.61303 12.7856 9.71971 13.0051 10.0708C13.2245 10.422 13.1171 10.8845 12.7659 11.104C11.3559 11.9852 8.91932 13.5086 7.69948 14.271C7.00148 14.7072 6.11841 14.7051 5.42214 14.27L0.351826 11.1011C0.000789528 10.8815 -0.105932 10.419 0.113545 10.0679ZM0.113545 7.26807C0.33308 6.91692 0.795536 6.81036 1.14675 7.02979L6.21706 10.1987C6.42859 10.3308 6.6948 10.3307 6.90456 10.1997C8.12431 9.43737 10.561 7.91398 11.971 7.03272C12.3222 6.8132 12.7856 6.91979 13.0051 7.271C13.2245 7.62223 13.1171 8.08472 12.7659 8.30421C11.3559 9.18543 8.9193 10.7088 7.69948 11.4712C7.00149 11.9074 6.11838 11.9053 5.42214 11.4702L0.351826 8.30128C0.000747369 8.08171 -0.105882 7.61925 0.113545 7.26807ZM5.42214 0.326667C6.11927 -0.109038 7.0033 -0.10898 7.70046 0.326667L12.219 3.14991C13.2153 3.77269 13.2154 5.22444 12.219 5.84717L7.70046 8.67042C7.00337 9.10586 6.11916 9.10601 5.42214 8.67042L0.903584 5.84717C-0.0927203 5.22448 -0.0925271 3.77276 0.903584 3.14991L5.42214 0.326667ZM6.90554 1.59815C6.69487 1.46665 6.4277 1.4666 6.21706 1.59815L1.69851 4.42237C1.64258 4.45774 1.64239 4.53951 1.69851 4.57471L6.21706 7.39893C6.42759 7.53038 6.69494 7.53023 6.90554 7.39893L11.4241 4.57471C11.4805 4.53948 11.4804 4.45765 11.4241 4.42237L6.90554 1.59815Z" fill="var(--fill-0, #454447)"/>
</svg>
