<svg preserveAspectRatio="none" width="100%" height="100%" overflow="visible" style="display: block;" viewBox="0 0 18 16" fill="none" xmlns="http://www.w3.org/2000/svg">
<path id="Union" d="M5 3.5H2.25C1.83579 3.5 1.5 3.83579 1.5 4.25V13.75C1.5 14.1642 1.83579 14.5 2.25 14.5H14.25C14.6642 14.5 15 14.1642 15 13.75V11H16.5V13.75C16.5 14.9926 15.4926 16 14.25 16H2.25C1.00736 16 0 14.9926 0 13.75V4.25C3.22133e-08 3.00736 1.00736 2 2.25 2H5V3.5ZM15.75 0C16.9926 0 18 1.00736 18 2.25V7.25C18 8.49264 16.9926 9.5 15.75 9.5H8.75C7.50736 9.5 6.5 8.49264 6.5 7.25V2.25C6.5 1.00736 7.50736 3.22128e-08 8.75 0H15.75ZM8.75 1.5C8.33579 1.5 8 1.83579 8 2.25V7.25C8 7.66421 8.33579 8 8.75 8H15.75C16.1642 8 16.5 7.66421 16.5 7.25V2.25C16.5 1.83579 16.1642 1.5 15.75 1.5H8.75Z" fill="var(--fill-0, #454447)"/>
</svg>
