<svg preserveAspectRatio="none" width="100%" height="100%" overflow="visible" style="display: block;" viewBox="0 0 17 17" fill="none" xmlns="http://www.w3.org/2000/svg">
<path id="Union" d="M13.25 0C15.3211 0 17 1.67893 17 3.75V9.48535C17 10.2147 16.71 10.914 16.1943 11.4297L11.4297 16.1943C10.914 16.71 10.2147 17 9.48535 17H3.75C1.67893 17 0 15.3211 0 13.25V3.75C0 1.67893 1.67893 0 3.75 0H13.25ZM3.75 1.5C2.50736 1.5 1.5 2.50736 1.5 3.75V13.25C1.5 14.4926 2.50736 15.5 3.75 15.5H9.25V10.75C9.25 9.92157 9.92157 9.25 10.75 9.25H15.5V3.75C15.5 2.50736 14.4926 1.5 13.25 1.5H3.75ZM10.75 14.7529L14.7529 10.75H10.75V14.7529ZM6.75 7C7.16421 7 7.5 7.33579 7.5 7.75C7.5 8.16421 7.16421 8.5 6.75 8.5H4.75C4.33579 8.5 4 8.16421 4 7.75C4 7.33579 4.33579 7 4.75 7H6.75ZM12.25 4C12.6642 4 13 4.33579 13 4.75C13 5.16421 12.6642 5.5 12.25 5.5H4.75C4.33579 5.5 4 5.16421 4 4.75C4 4.33579 4.33579 4 4.75 4H12.25Z" fill="var(--fill-0, #1D1C1D)"/>
</svg>
