<svg preserveAspectRatio="none" width="100%" height="100%" overflow="visible" style="display: block;" viewBox="0 0 17 17" fill="none" xmlns="http://www.w3.org/2000/svg">
<path id="Union" d="M7.5 0C11.6421 0 15 3.35786 15 7.5C15 9.30091 14.3636 10.9522 13.3057 12.2451L16.7803 15.7197C17.0732 16.0126 17.0732 16.4874 16.7803 16.7803C16.4874 17.0732 16.0126 17.0732 15.7197 16.7803L12.2451 13.3057C10.9522 14.3636 9.30091 15 7.5 15C3.35786 15 0 11.6421 0 7.5C0 3.35786 3.35786 0 7.5 0ZM7.5 1.5C4.18629 1.5 1.5 4.18629 1.5 7.5C1.5 10.8137 4.18629 13.5 7.5 13.5C10.8137 13.5 13.5 10.8137 13.5 7.5C13.5 4.18629 10.8137 1.5 7.5 1.5Z" fill="var(--fill-0, #F4DAFF)" fill-opacity="0.8"/>
</svg>
